<svg version="1.2" xmlns="http://www.w3.org/2000/svg" viewBox="0 0 1001 1318" width="1001" height="1318">
	<title>vecteezy_cover-template-flyer-design-vector-background_22230013</title>
	<defs>
		<linearGradient id="g1" x2="1" gradientUnits="userSpaceOnUse" gradientTransform="matrix(374.397,-11.905,1.715,53.938,329.686,1198.294)">
			<stop offset="0" stop-color="#ffffff"/>
			<stop offset="1" stop-color="#1d1d1b"/>
		</linearGradient>
		<linearGradient id="g2" x2="1" gradientUnits="userSpaceOnUse" gradientTransform="matrix(-374.397,-11.905,1.715,-53.938,671.913,1198.294)">
			<stop offset="0" stop-color="#ffffff"/>
			<stop offset="1" stop-color="#1d1d1b"/>
		</linearGradient>
		<linearGradient id="g3" x2="1" gradientUnits="userSpaceOnUse" gradientTransform="matrix(666.033,648.074,-140.138,144.022,585.775,40.328)">
			<stop offset="0" stop-color="#4eb296"/>
			<stop offset="1" stop-color="#095487"/>
		</linearGradient>
		<linearGradient id="g4" x2="1" gradientUnits="userSpaceOnUse" gradientTransform="matrix(666.034,648.075,-336.67,346,880.922,-387.484)">
			<stop offset="0" stop-color="#4eb296"/>
			<stop offset="1" stop-color="#095487"/>
		</linearGradient>
		<linearGradient id="g5" x2="1" gradientUnits="userSpaceOnUse" gradientTransform="matrix(328.532,319.673,-69.125,71.041,792.099,404.324)">
			<stop offset="0" stop-color="#8f8f8f"/>
			<stop offset="1" stop-color="#404040"/>
		</linearGradient>
		<linearGradient id="g6" x2="1" gradientUnits="userSpaceOnUse" gradientTransform="matrix(328.532,319.673,-166.068,170.67,937.685,193.299)">
			<stop offset="0" stop-color="#8f8f8f"/>
			<stop offset="1" stop-color="#404040"/>
		</linearGradient>
		<linearGradient id="g7" x2="1" gradientUnits="userSpaceOnUse" gradientTransform="matrix(22.226,972.195,-387.217,8.853,967.086,856.972)">
			<stop offset="0" stop-color="#8f8f8f"/>
			<stop offset="1" stop-color="#404040"/>
		</linearGradient>
		<linearGradient id="g8" x2="1" gradientUnits="userSpaceOnUse" gradientTransform="matrix(24.2,1058.523,-425.842,9.736,973.76,696.587)">
			<stop offset="0" stop-color="#8f8f8f"/>
			<stop offset="1" stop-color="#404040"/>
		</linearGradient>
		<linearGradient id="g9" x2="1" gradientUnits="userSpaceOnUse" gradientTransform="matrix(522.124,0,0,164.68,7.396,168.908)">
			<stop offset="0" stop-color="#1d1d1b"/>
			<stop offset="1" stop-color="#878787"/>
		</linearGradient>
		<linearGradient id="g10" x2="1" gradientUnits="userSpaceOnUse" gradientTransform="matrix(184.885,0,0,84.428,7.396,116.051)">
			<stop offset="0" stop-color="#1d1d1b"/>
			<stop offset="1" stop-color="#878787"/>
		</linearGradient>
		<linearGradient id="g11" x2="1" gradientUnits="userSpaceOnUse" gradientTransform="matrix(797.944,776.427,-289.141,297.154,-344.565,-583.954)">
			<stop offset="0" stop-color="#4eb296"/>
			<stop offset="1" stop-color="#095487"/>
		</linearGradient>
		<linearGradient id="g12" x2="1" gradientUnits="userSpaceOnUse" gradientTransform="matrix(907.923,883.441,-242.217,248.929,615.578,21.917)">
			<stop offset="0" stop-color="#4eb296"/>
			<stop offset="1" stop-color="#095487"/>
		</linearGradient>
	</defs>
	<style>
		.s0 { mix-blend-mode: multiply;fill: url(#g1) } 
		.s1 { mix-blend-mode: multiply;fill: url(#g2) } 
		.s2 { fill: url(#g3) } 
		.s3 { fill: url(#g4) } 
		.s4 { fill: url(#g5) } 
		.s5 { fill: url(#g6) } 
		.s6 { fill: url(#g7) } 
		.s7 { fill: url(#g8) } 
		.s8 { fill: url(#g9) } 
		.s9 { fill: url(#g10) } 
		.s10 { fill: url(#g11) } 
		.s11 { fill: url(#g12) } 
	</style>
	<g id="_Artboards_">
	</g>
	<g id="Layer 1">
		<g id="&lt;Group&gt;" style="opacity: .7">
		</g>
		<g id="&lt;Group&gt;" style="opacity: .7">
			<path id="&lt;Mesh&gt;" class="s0" d="m329.7 1198.3q192.1 21.6 384.3 43.2c-1.4-9.5 111.2-3.3 109.5-11.8-130.5-6.2-375.3-26.6-505.8-32.7q6 0.6 12 1.3zm-12-1.3c130.5 6.1 375.3 26.5 505.8 32.7-1.8-9.2-117.9-33.1-119.4-43.3q-199.6 4.5-399.2 9.1 6.4 0.7 12.8 1.5zm396.3 44.5q127.2 14.3 254.5 28.6 0-21.6 0-43.2c-86.4-4.1-58.6 6.8-145 2.8 1.7 8.5-110.9 2.3-109.5 11.8zm109.5-11.8c86.4 4 58.6-6.9 145-2.8q0-23.3 0-46.5-132.2 3-264.4 6c1.5 10.2 117.6 34.1 119.4 43.3z"/>
			<path id="&lt;Mesh&gt;" class="s1" d="m671.9 1198.3q-192.1 21.6-384.3 43.2c1.4-9.5-111.2-3.3-109.5-11.8 130.5-6.2 375.3-26.6 505.8-32.7q-6 0.6-12 1.3zm12-1.3c-130.5 6.1-375.3 26.5-505.8 32.7 1.8-9.2 117.9-33.1 119.4-43.3q199.6 4.5 399.2 9.1-6.4 0.7-12.8 1.5zm-396.3 44.5q-127.2 14.3-254.5 28.6 0-21.6 0-43.2c86.4-4.1 58.6 6.8 145 2.8-1.7 8.5 110.9 2.3 109.5 11.8zm-109.5-11.8c-86.4 4-58.6-6.9-145-2.8q0-23.3 0-46.5 132.2 3 264.4 6c-1.5 10.2-117.6 34.1-119.4 43.3z"/>
		</g>
		<g id="&lt;Group&gt;">
			<g id="&lt;Group&gt;">
				<g id="&lt;Group&gt;">
					<g id="&lt;Group&gt;">
					</g>
				</g>
				<g id="&lt;Group&gt;">
					<g id="&lt;Group&gt;">
					</g>
				</g>
				<g id="&lt;Group&gt;">
				</g>
				<g id="&lt;Group&gt;">
					<path id="&lt;Path&gt;" class="s2" d="m300.3 298.8c0 0 301.1 50.5 553.6 551.1-31.6-208.1-122.8-346.6-198.7-429.1-221.1-109.5-354.9-122-354.9-122z"/>
					<path id="&lt;Path&gt;" class="s3" d="m992.9 628.2c-126.8-92.6-240.6-159.3-337.7-207.4 75.9 82.5 167.1 221 198.7 429.1 49.1 97.1 96.2 211.2 139 345.2z"/>
				</g>
				<g id="&lt;Group&gt;" style="opacity: .3;mix-blend-mode: multiply">
					<path id="&lt;Path&gt;" class="s4" d="m651.3 531.8c0 0 148.5 24.9 273.1 271.8-15.6-102.6-60.6-170.9-98.1-211.6-109-54-175-60.2-175-60.2z"/>
					<path id="&lt;Path&gt;" class="s5" d="m992.9 694.3c-62.5-45.7-118.7-78.6-166.6-102.3 37.5 40.7 82.5 109 98.1 211.6 24.2 48 47.4 104.2 68.5 170.3z"/>
				</g>
				<g id="&lt;Group&gt;" style="opacity: .2">
					<path id="&lt;Path&gt;" class="s6" d="m951.8 1155.1c-77.2-221.9-159.8-319.6-159.8-319.6 0 0 88.4 121.6 77.7 379.1h77.5c2.5-21.1 4-41 4.6-59.5z"/>
					<path id="&lt;Path&gt;" class="s7" d="m971.3 1214.6q-9.7-31.1-19.5-59.5c-0.6 18.5-2.1 38.4-4.6 59.5z"/>
				</g>
				<path id="&lt;Path&gt;" class="s8" d="m529.5 333.6c0 0-103.4-85.8-337.2-164.7-52.2 2.2-115.3 10.6-184.9 31.6v67.9c354.6-54.2 522.1 65.2 522.1 65.2z"/>
				<path id="&lt;Path&gt;" class="s9" d="m192.3 168.9c-54.5-18.4-116-36.4-184.9-52.8v84.4c69.6-21 132.7-29.4 184.9-31.6z"/>
				<g id="&lt;Group&gt;">
					<g id="&lt;Group&gt;">
					</g>
					<g id="&lt;Group&gt;">
					</g>
					<g id="&lt;Group&gt;">
					</g>
					<g id="&lt;Group&gt;">
					</g>
					<g id="&lt;Group&gt;">
					</g>
					<g id="&lt;Group&gt;">
					</g>
				</g>
				<g id="&lt;Group&gt;">
					<g id="&lt;Group&gt;">
					</g>
					<g id="&lt;Group&gt;">
					</g>
					<g id="&lt;Group&gt;">
					</g>
					<g id="&lt;Group&gt;">
					</g>
					<g id="&lt;Group&gt;">
					</g>
					<g id="&lt;Group&gt;">
					</g>
				</g>
			</g>
			<path id="&lt;Path&gt;" class="s10" d="m439.6 204.1c-146.1-72.4-291.3-137-432.2-192.5v3.1c140.5 55.3 285.2 119.8 430.9 191.9z"/>
			<path id="&lt;Path&gt;" class="s11" d="m439.6 204.1l-1.3 2.5c183 90.6 368.3 193.7 554.6 308.4v-3.4c-185.9-114.3-370.8-217.1-553.3-307.5z"/>
		</g>
		<g id="&lt;Group&gt;">
			<g id="&lt;Group&gt;">
				<g id="&lt;Group&gt;">
					<g id="&lt;Group&gt;">
					</g>
				</g>
				<g id="&lt;Group&gt;">
				</g>
				<g id="&lt;Group&gt;">
					<g id="&lt;Group&gt;">
					</g>
				</g>
				<g id="&lt;Group&gt;">
				</g>
				<g id="&lt;Group&gt;">
				</g>
				<g id="&lt;Group&gt;" style="opacity: .3;mix-blend-mode: multiply">
				</g>
				<g id="&lt;Group&gt;" style="opacity: .2">
				</g>
				<g id="&lt;Group&gt;">
					<g id="&lt;Group&gt;">
					</g>
					<g id="&lt;Group&gt;">
					</g>
					<g id="&lt;Group&gt;">
					</g>
					<g id="&lt;Group&gt;">
					</g>
					<g id="&lt;Group&gt;">
					</g>
				</g>
				<g id="&lt;Group&gt;">
					<g id="&lt;Group&gt;">
					</g>
					<g id="&lt;Group&gt;">
					</g>
					<g id="&lt;Group&gt;">
					</g>
					<g id="&lt;Group&gt;">
					</g>
					<g id="&lt;Group&gt;">
					</g>
					<g id="&lt;Group&gt;">
					</g>
				</g>
			</g>
		</g>
	</g>
</svg>